<svg version="1" xmlns="http://www.w3.org/2000/svg" width="682.667" height="682.667" viewBox="0 0 512.000000 512.000000"><path d="M24 161v74l19.3-.2 19.2-.3.3-31.2.2-31.3 30.3-.2 30.2-.3.3-14.3.3-14.2H63v-27h64V87H24v74zM207.9 122.3c-6.8 1.9-13 6-18.7 12.2l-5.1 5.6-.3-8.3-.3-8.3h-35v111h35l.6-31.5c.6-34.6.9-36.9 7-44.3 7.7-9.3 23.5-11.4 38.7-5 1 .4 1.2-2.9 1-15.9l-.3-16.3-9-.2c-4.9-.1-11.1.4-13.6 1zM314 259.6c0 18.1-.3 51.5-.7 74.1l-.6 41.3h38c43 0 50.6-.8 62.7-6.4 8.5-3.9 14.9-10 18.5-17.6 2.3-5 2.6-6.6 2.6-18 0-10.9-.3-13.1-2.3-17.4-3.4-7.5-8.4-12.9-15.3-16.6l-6.2-3.3 3.4-1.8c5.3-2.7 11.4-9.9 13.4-15.8 2.7-8.1 1.8-21.9-1.8-29.3-4.8-9.9-13.7-16-28.2-19.4-5.6-1.3-14.8-1.7-45.2-2.1l-38.3-.5v32.8zm69.1-4c5.4 3.2 7.4 6.8 7.4 13.4 0 6.8-2.1 10.5-7.6 13.2-2.7 1.5-6 1.8-17.1 1.8H352V252.7l13.9.5c11.2.4 14.6.9 17.2 2.4zm4.5 57.9c6.2 3.1 8.5 6.9 9.1 14.9.6 8.2-2.3 14-8.7 17.6-4.2 2.3-5.7 2.5-20.2 2.8l-15.8.4V311h15.3c14.3 0 15.6.2 20.3 2.5zM76.8 253.2c-3.7 1-3.8 1.2-3.8 5.4 0 2.4.2 4.4.5 4.4.4 0 2-.7 3.6-1.6 3.7-1.9 10.4-2.1 12.4-.4.8.7 1.5 2.7 1.5 4.5 0 2.9-1.2 4.4-9 11.6-8.4 7.6-9 8.5-9 12v3.9h29v-8H85.5l6.8-6.1c3.7-3.4 7.4-7.4 8.2-9 3.4-6.4.7-13.7-6.1-16.5-3.8-1.6-12.1-1.7-17.6-.2zM115.3 253.2c-4.3.9-4.3.9-4.3 5.5 0 3.9.2 4.4 1.8 3.8 9.1-3.8 14-3.7 16.2.5 1.9 3.5-.4 7.1-9.6 15-7.9 6.8-8.4 7.5-8.4 11.1v3.9h30v-8h-17l8-7.8c7.8-7.5 8-7.8 8-12.5 0-2.6-.7-5.8-1.6-7.2-3.1-4.8-12.9-6.6-23.1-4.3zM153.8 252.7c-2.5.4-2.8.8-2.8 4.4v4l3.8-.8c8.1-1.7 13.2-.2 13.2 3.8 0 2.6-3.8 4.9-8.2 4.9-3.7 0-3.8.1-3.8 3.5 0 3.5 0 3.5 4.5 3.5 6.9 0 10.8 4.7 6.8 8.2-3.4 2.9-9.5 3-16.6.2-1.4-.5-1.7.1-1.7 3.4 0 3.9.2 4.2 3.8 5.1 8.9 2.5 19.7.6 23.8-4.2 3.4-4 3.4-10.8-.1-14.2-1.3-1.4-2.9-2.5-3.5-2.5-.6 0 .2-1.2 1.9-2.6 2.5-2.1 3.1-3.3 3.1-6.6 0-2.1-.4-4.7-1-5.7-2.1-4-12.6-6-23.2-4.4zM341.6 390c-7 2.1-10.9 9.2-10.9 20-.1 14 5.4 21 16.5 21 9.9 0 15.6-6.3 16.5-18.3 1.3-16.5-8.6-26.7-22.1-22.7zm10.1 10c1.6 3.1 1.7 15.6.2 19.8-1.9 5.4-8.1 5.1-9.6-.6-1.2-4.2-.8-17.4.6-20 1.7-3.2 7-2.7 8.8.8zM399.6 390c-3.9 1.2-7.4 4.6-8.1 8.1-.7 3.1 1.5 8.2 4.2 9.7 1.4.8 1.2 1.3-1.7 3.9-2.7 2.4-3.3 3.7-3.3 6.9 0 8.3 5 12.4 15.1 12.4 11.1 0 16.2-3.7 16.2-11.8 0-3.5-.6-4.9-3-7.4l-3.1-3 2.6-2.4c3.5-3.2 3.5-10.1.1-13.3-3.8-3.6-12.5-5-19-3.1zm10.2 7.2c2.1 2.1 1.5 6.7-1.2 7.9-3.4 1.6-6.6-.3-6.6-3.9 0-3.3 1.6-5.2 4.5-5.2 1.2 0 2.6.5 3.3 1.2zm1 17c.7.7 1.2 2.6 1.2 4.3 0 3.9-1.6 5.5-5.5 5.5s-5.5-1.6-5.5-5.5c0-1.7.5-3.6 1.2-4.3 1.6-1.6 7-1.6 8.6 0zM299.5 390.9c-2.6.5-3 1.1-3.3 4.4l-.3 3.8 4.5-.6 4.6-.7V423h-9v8.1l14.3-.3 14.2-.3V427c0-3.5 0-3.5-4.7-3.8l-4.8-.3V390l-6.2.1c-3.5.1-7.6.4-9.3.8zM438.5 390.5c-.5.2-2.2.6-3.7.9-2.4.6-2.8 1.1-2.8 4.2v3.5l4.5-.7 4.5-.6V423h-9.1l.3 3.7.3 3.8 13.8.3 13.7.3V423h-9v-33l-5.7.1c-3.2 0-6.2.2-6.8.4zM372 423.8c0 2.2-.7 6.1-1.5 8.8-.8 2.7-1.5 5-1.5 5.1 0 .2 1.5.3 3.3.3 2.7 0 3.7-.7 6.5-5 2.3-3.5 3.2-6.1 3.2-9v-4h-10v3.8z"/></svg>